<?xml version="1.0" encoding="UTF-8" standalone="no"?>
<!DOCTYPE svg PUBLIC "-//W3C//DTD SVG 1.1//EN" "http://www.w3.org/Graphics/SVG/1.1/DTD/svg11.dtd">
<svg version="1.1" xmlns="http://www.w3.org/2000/svg" xmlns:xlink="http://www.w3.org/1999/xlink" preserveAspectRatio="xMidYMid meet" viewBox="0 0 640 640" width="640" height="640"><defs><path d="M377.05 69.22C396.19 89.16 400.55 109.77 402.55 115.27C403.66 118.32 405.38 131.24 407.73 154.03C408.23 158.86 411.52 162.94 416.13 164.45C455.53 177.34 479.84 185.6 489.05 189.22C504.3 195.22 554.94 223.85 565.3 232.72C575.66 241.6 588.15 262.86 589.5 275.72C590.84 288.58 585.47 303.5 576.67 313.17C567.87 322.83 547.39 328.17 543.3 329.37C539.21 330.57 520.3 331.97 499.3 331.97C478.3 331.97 485.2 331.97 481.67 331.97C471.62 331.97 464.89 342.32 468.96 351.51C472.55 359.6 474.66 364.39 475.3 365.87C477.55 371.12 505.55 420.62 515.55 436.62C525.55 452.62 548.3 499.12 556.8 519.62C561.12 530.05 565.47 546.97 569.82 570.39C571.37 578.7 564.99 586.37 556.54 586.37C524.2 586.37 439.45 586.37 406.11 586.37C399.09 586.37 392.56 582.8 388.77 576.89C375.02 555.44 343.82 506.78 331.07 486.88C325.9 478.82 314.12 478.84 308.98 486.91C296.29 506.8 264.46 556.72 250.57 578.5C247.45 583.4 242.03 586.36 236.21 586.33C202.22 586.19 114.9 585.82 82.24 585.69C74.18 585.65 68.34 577.97 70.47 570.2C80.58 533.28 87.84 508.76 92.25 496.62C100.25 474.62 164.53 365.6 168.28 358.35C169.29 356.38 170.53 352.84 172 347.73C174.26 339.86 168.32 332.03 160.13 332.08C136.94 332.24 124.05 332.2 121.48 331.97C115.98 331.47 94.73 328.97 88.48 326.97C82.23 324.97 66.23 317.72 57.73 305.97C49.23 294.22 51.03 278.15 51.53 269.65C52.03 261.15 61.03 247.65 75.03 233.4C89.03 219.15 126.55 199.35 137.8 194.1C149.05 188.85 188.3 175.1 201.55 170.85C207.46 168.95 214.71 166.91 223.28 164.72C229.58 163.12 233.92 157.34 233.71 150.84C233.18 134.71 234.8 121.52 238.58 111.27C245.83 91.58 242.08 89.47 263.08 69.22C277.08 55.72 296.05 48.49 320 47.52C345.28 48.7 364.29 55.93 377.05 69.22Z" id="aant4oRsI"></path><mask id="maska5WboA0dvy" x="11.02" y="7.52" width="618.68" height="618.85" maskUnits="userSpaceOnUse"><rect x="11.02" y="7.52" width="618.68" height="618.85" fill="white"></rect><use xlink:href="#aant4oRsI" opacity="1" fill="black"></use></mask></defs><g><g><g><use xlink:href="#aant4oRsI" opacity="1" fill="#5eba10" fill-opacity="1"></use><g mask="url(#maska5WboA0dvy)"><use xlink:href="#aant4oRsI" opacity="1" fill-opacity="0" stroke="#192335" stroke-width="40" stroke-opacity="1"></use></g></g></g></g></svg>