<?xml version="1.0" encoding="UTF-8" standalone="no"?>
<svg
   xmlns:dc="http://purl.org/dc/elements/1.1/"
   xmlns:cc="http://creativecommons.org/ns#"
   xmlns:rdf="http://www.w3.org/1999/02/22-rdf-syntax-ns#"
   xmlns:svg="http://www.w3.org/2000/svg"
   xmlns="http://www.w3.org/2000/svg"
   xmlns:sodipodi="http://sodipodi.sourceforge.net/DTD/sodipodi-0.dtd"
   xmlns:inkscape="http://www.inkscape.org/namespaces/inkscape"
   sodipodi:docname="symbol-hearts.svg"
   width="200"
   height="200"
   viewBox="0 0 52.916665 52.916668"
   version="1.1"
   id="svg66"
   inkscape:version="1.1-dev (ddb55ca, 2020-02-02)">
  <defs
     id="defs60" />
  <sodipodi:namedview
     inkscape:window-maximized="0"
     inkscape:window-y="223"
     inkscape:window-x="1872"
     inkscape:window-height="855"
     inkscape:window-width="1251"
     id="base"
     pagecolor="#ffffff"
     bordercolor="#666666"
     borderopacity="1.0"
     inkscape:pageopacity="0.0"
     inkscape:pageshadow="2"
     inkscape:zoom="2.2251395"
     inkscape:cx="103.46286"
     inkscape:cy="101.37169"
     inkscape:document-units="mm"
     inkscape:current-layer="layer1"
     showgrid="false"
     units="px" />
  <metadata
     id="metadata63">
    <rdf:RDF>
      <cc:Work
         rdf:about="">
        <dc:format>image/svg+xml</dc:format>
        <dc:type
           rdf:resource="http://purl.org/dc/dcmitype/StillImage" />
        <dc:title></dc:title>
      </cc:Work>
    </rdf:RDF>
  </metadata>
  <g
     inkscape:label="Layer 1"
     inkscape:groupmode="layer"
     id="layer1">
    <path
       inkscape:connector-curvature="0"
       sodipodi:nodetypes="ccccccccccccccccccccc"
       id="path30"
       d="M 26.12285,52.762022 C 26.073991,52.674001 25.863922,52.037606 25.656039,51.347803 24.338559,46.976148 21.892807,42.549354 17.797078,37.123137 16.258317,35.084519 14.809961,33.279291 10.893554,28.518598 6.3588293,23.006299 5.0598926,21.240444 3.7482247,18.804835 2.973654,17.366552 2.1709677,15.178107 1.9068207,13.784433 1.642819,12.391571 1.6385142,10.115976 1.8976192,8.9310518 2.9516404,4.1111743 7.2329639,0.47491924 12.352402,0.05149521 c 5.8647,-0.4850621 10.853375,2.47760659 13.474553,8.00225199 l 0.585311,1.23366 0.440524,-0.9745871 C 27.50736,6.8646957 28.137747,5.8852712 29.201773,4.6632447 31.910815,1.5519016 35.134906,0.02781297 39.018936,0.0224815 40.758715,0.0201139 41.755649,0.16449581 43.23818,0.63361947 45.455471,1.3352434 47.124587,2.4282585 48.611106,4.1520736 52.485024,8.6443853 52.026345,14.76446 47.253952,22.26 c -1.11325,1.748485 -3.121874,4.335506 -5.884217,7.578628 -3.181024,3.734676 -4.735322,5.632715 -6.326624,7.725823 -3.814349,5.01719 -6.379665,9.575959 -7.790713,13.844722 -0.215255,0.651195 -0.440772,1.257993 -0.501152,1.348436 -0.140217,0.210037 -0.512807,0.212651 -0.628412,0.0043 z"
       style="fill:#ff0000;fill-opacity:1;stroke-width:0.142372" />
  </g>
</svg>
